PathFileType	4	(X/Y/Z)	C:\Users\WrightLab\Desktop\Jo\P1.2Trial6.trc
DataRate	CameraRate	NumFrames	NumMarkers	Units	OrigDataRate	OrigDataStartFrame	OrigNumFrames
100.00	100.00	       13	19	mm	100.00	1	       542
Frame#	Time	Headset_Front			Headset_Back			Headset_Left			Headset_Right			Left_Shoulder			Right_Shoulder			Sternum			C7			Left Elbow			Right Elbow			Left Wrist			Right Wrist			Left ASIS			Right ASIS			S2			Left Knee			Right Knee			Left Ankle			Right Ankle			
		X1	Y1	Z1	X2	Y2	Z2	X3	Y3	Z3	X4	Y4	Z4	X5	Y5	Z5	X6	Y6	Z6	X7	Y7	Z7	X8	Y8	Z8	X9	Y9	Z9	X10	Y10	Z10	X11	Y11	Z11	X12	Y12	Z12	X13	Y13	Z13	X14	Y14	Z14	X15	Y15	Z15	X16	Y16	Z16	X17	Y17	Z17	X18	Y18	Z18	X19	Y19	Z19	

1	0.000													-0.89429	1209.55212	-1597.64880																78.95069	718.56323	-1489.86755				-87.93338	844.75653	-1464.57813				-181.44891	866.26654	-1771.34192				-381.85321	391.31335	-1511.38831	-58.14816	46.69047	-1618.94861	-380.77374	42.74057	-1576.52429	
2	0.010													-0.49082	1209.55017	-1594.09351																79.00043	718.25000	-1489.10767				-89.03573	843.84924	-1461.96497				-180.68440	866.88110	-1770.80774				-380.04758	392.71927	-1506.42419	-57.60935	46.12234	-1618.47437	-380.62848	42.78228	-1575.68860	
3	0.020													-0.93984	1210.17603	-1591.78589																78.26028	717.29932	-1486.82629				-89.21859	842.69232	-1461.73608				-180.00993	867.41132	-1770.09155				-376.56674	393.47742	-1505.68481	-57.45454	46.09131	-1618.39954	-380.92273	42.91595	-1573.06824	
4	0.030													-0.57707	1208.18811	-1583.95886										60.39241	918.28687	-1621.85364				80.06326	715.61432	-1486.62244				-89.34305	840.77502	-1460.48816				-179.49748	868.00049	-1769.64246				-373.33572	394.36621	-1501.42029	-57.27692	45.86906	-1618.75342	-381.04239	47.01239	-1564.05505	
5	0.040													-0.23855	1207.86414	-1579.93176										60.16562	918.22339	-1616.64331				79.73535	714.07703	-1482.92017				-89.55581	839.24976	-1459.12292				-179.07846	868.49530	-1768.74561				-372.33896	395.92184	-1496.13281	-57.19128	45.78061	-1618.78503	-382.19693	46.09278	-1563.95410	
6	0.050													-0.25311	1207.22339	-1575.29248										61.20926	917.75336	-1614.38440				80.42944	713.04517	-1483.19824				-90.31976	837.51910	-1458.44678				-178.70714	869.37628	-1768.03577				-373.53955	396.77921	-1493.38171	-57.18573	45.79999	-1618.79810	-381.99033	47.55026	-1560.95398	
7	0.060													-0.75811	1207.05835	-1571.71350										61.68168	916.93866	-1610.05200				79.17193	712.52405	-1479.57910				-90.61073	835.68512	-1458.98035				-178.55309	870.28491	-1767.53638				-376.88144	400.23520	-1485.43359	-57.29075	45.73556	-1619.06592	-383.15942	52.80819	-1558.81030	
8	0.070													-0.74252	1205.65723	-1565.23743										61.32938	916.61890	-1605.51025				81.23670	710.88654	-1479.85498				-92.23771	835.23169	-1453.43274				-178.29794	871.02527	-1766.57629				-380.21622	401.46191	-1477.68713	-57.30977	45.72018	-1619.06006	-382.87552	52.81163	-1558.64343	
9	0.080													-1.41720	1205.49023	-1561.62598										61.84639	916.90308	-1603.30725				81.14416	709.85443	-1477.17920				-94.54488	835.71039	-1447.03687				-178.00633	871.73901	-1765.31409				-383.43106	402.56235	-1472.26099	-57.47113	45.74389	-1619.16296	-383.63721	54.13361	-1558.56421	
10	0.090													-2.84417	1205.70264	-1558.51685										61.51013	916.52728	-1597.82068				80.85998	708.75146	-1474.03662				-95.95876	834.21533	-1445.96777				-177.83801	873.04773	-1764.83887				-386.17453	404.28409	-1466.79993	-57.84262	45.63184	-1620.01318	-386.08453	57.76750	-1555.45264	
11	0.100													-4.30983	1205.91455	-1555.39441										61.00145	915.26923	-1592.87830				81.45171	708.50665	-1472.61646				-97.70961	830.78210	-1447.18555				-177.49260	873.88055	-1763.07153				-389.06677	409.22604	-1452.93457	-57.99470	46.11332	-1620.30066	-388.73199	61.50698	-1554.46924	
12	0.110													-4.72717	1203.96936	-1547.22437										61.43208	915.65771	-1590.68262				81.71933	707.29016	-1469.73889				-101.82309	831.06708	-1443.36414				-177.19052	874.76288	-1761.58423				-393.43912	409.88583	-1456.26660	-58.35908	46.47329	-1619.98889	-393.42889	67.64825	-1545.04492	
13	0.120													-5.27235	1203.28650	-1541.60242										60.68838	916.16888	-1588.01355				81.64197	707.22797	-1467.38464				-103.21517	829.47064	-1447.01001				-176.99593	875.76544	-1759.98572				-396.03876	410.09576	-1456.11938	-58.37734	46.70226	-1620.57239	-396.17523	70.61089	-1543.54114	
